# xmcd
#
# Track frame offsets:
#	183
#	12020
#	25705
#	46098
#	59528
#	72195
#	86953
#	101048
#	108913
#	120178
#	134165
#	144895
#	159120
#	171890
#	182978
#	194618
#	206838
#	220155
#	233753
#
# Disc length: 3248 seconds
#
# Revision: 0
# Processed by: cddbd v1.4PL0 Copyright (c) Steve Scherf et al.
# Submitted via: EasyCDDAExtractor 4.5.0.2
#
DISCID=090cae13
DTITLE=Lowell Fulson - So Many Tears
DYEAR=1976
DGENRE=Blues
TTITLE0=Took A Long Time
TTITLE1=Lovin' You
TTITLE2=I Want To Know
TTITLE3=Hung Down Head
TTITLE4=It's A Long Time
TTITLE5=I Want To Make Love To You
TTITLE6=Someday Baby
TTITLE7=Rock This Morning
TTITLE8=So Many Tears
TTITLE9=Have You Changed Your Mind ?
TTITLE10=Comin' Home Someday
TTITLE11=Worry,worry
TTITLE12=I'm Glad You Reconsidered
TTITLE13=Blue Shadows
TTITLE14=Why Don't You Write Me
TTITLE15=Trouble With The Blues
TTITLE16=Pay Day Blues
TTITLE17=Blue Soul
TTITLE18=Shed No Tears
EXTD=
EXTT0=
EXTT1=
EXTT2=
EXTT3=
EXTT4=
EXTT5=
EXTT6=
EXTT7=
EXTT8=
EXTT9=
EXTT10=
EXTT11=
EXTT12=
EXTT13=
EXTT14=
EXTT15=
EXTT16=
EXTT17=
EXTT18=
PLAYORDER=
